<svg xmlns="http://www.w3.org/2000/svg" width="60.001" height="60.001" viewBox="0 0 60.001 60.001">
  <g id="Group_9429" data-name="Group 9429" transform="translate(11244.026 22506)" opacity="0.5">
    <path id="Path_6296" data-name="Path 6296" d="M59.984,30A29.992,29.992,0,1,1,29.992,0,30,30,0,0,1,59.984,30" transform="translate(-11244.026 -22506.002)" fill="#1b3d6c"/>
    <path id="Path_6297" data-name="Path 6297" d="M76.244,95.9,95.11,116.013a27.853,27.853,0,0,0,8.971-3.765,29.963,29.963,0,0,0,10-10.613s3.335-4.7,4.164-14.2L96.9,74.248Z" transform="translate(-11302.291 -22562.752)" fill="#0b2c58"/>
    <path id="Path_6298" data-name="Path 6298" d="M102.346,70.431a2.154,2.154,0,0,0-1.533-.635H93.249a1.034,1.034,0,0,1-.3-.043,1.024,1.024,0,0,1-.687-1.273,15.307,15.307,0,0,1,.876-2.053c.2-.413.406-.84.6-1.294a11.149,11.149,0,0,0,1-4.585,2.629,2.629,0,0,0-2.626-2.626h-.1a1.709,1.709,0,0,0-1.7,1.5v0a13.135,13.135,0,0,1-.806,3.28,12.6,12.6,0,0,1-3.469,4.7,21.516,21.516,0,0,0-1.958,2.064l-.007.009A7.44,7.44,0,0,0,82.9,71.83a1.015,1.015,0,0,1-.943.705v-.57A1.258,1.258,0,0,0,80.7,70.709H74.589a1.257,1.257,0,0,0-1.256,1.256V83.382a1.258,1.258,0,0,0,1.256,1.256H80.7a1.258,1.258,0,0,0,1.256-1.256v-.57h.57a1.847,1.847,0,0,1,1.316.545l.992.992a2.53,2.53,0,0,0,1.8.746H98.482a2.219,2.219,0,0,0,2.2-1.948v-.01c.007-.071.01-.142.01-.212a2.164,2.164,0,0,0-.676-1.573,2.219,2.219,0,0,0,1.578-1.859s0-.005,0-.008c.007-.071.011-.143.011-.214a2.165,2.165,0,0,0-.677-1.573,2.22,2.22,0,0,0,1.578-1.859v-.008c.007-.07.011-.142.011-.214a2.168,2.168,0,0,0-.814-1.693,2.218,2.218,0,0,0,1.259-1.738v-.008c.007-.071.011-.143.011-.214a2.156,2.156,0,0,0-.635-1.534" transform="translate(-11300.066 -22550.271)" fill="#f6d5a0"/>
    <path id="Path_6300" data-name="Path 6300" d="M83.988,51.4A5.992,5.992,0,1,1,78,45.4,5.992,5.992,0,0,1,83.988,51.4" transform="translate(-11299.052 -22540.705)" fill="#0b2c58" stroke="#f9f9f9" stroke-width="1"/>
    <rect id="Rectangle_5137" data-name="Rectangle 5137" width="7.877" height="13.333" rx="1" transform="translate(-11226.439 -22479.334)" fill="#ffc450"/>
    <path id="Path_6301" data-name="Path 6301" d="M84.213,63.192l1.981,2.458,4.25-4.623" transform="translate(-11308.384 -22552.646)" fill="none" stroke="#fff" stroke-width="2"/>
    <rect id="Rectangle_5138" data-name="Rectangle 5138" width="59.984" height="60" transform="translate(-11244.01 -22506)" fill="none"/>
    <path id="Path_6299" data-name="Path 6299" d="M102.346,70.431a2.154,2.154,0,0,0-1.533-.635H93.249a1.034,1.034,0,0,1-.3-.043,1.024,1.024,0,0,1-.687-1.273,15.307,15.307,0,0,1,.876-2.053c.2-.413.406-.84.6-1.294a11.148,11.148,0,0,0,1-4.585,2.629,2.629,0,0,0-2.626-2.626h-.1a1.709,1.709,0,0,0-1.7,1.5v0a13.135,13.135,0,0,1-.806,3.28,12.605,12.605,0,0,1-3.469,4.7,21.512,21.512,0,0,0-1.958,2.064l-.007.009A7.435,7.435,0,0,0,82.9,71.83a1.015,1.015,0,0,1-.943.7v-.57A1.257,1.257,0,0,0,80.7,70.709H74.589a1.257,1.257,0,0,0-1.256,1.256V83.382a1.258,1.258,0,0,0,1.256,1.256H80.7a1.258,1.258,0,0,0,1.256-1.256v-.57h.57a1.847,1.847,0,0,1,1.316.545l.992.992a2.53,2.53,0,0,0,1.8.746H98.482a2.219,2.219,0,0,0,2.2-1.948v-.01c.007-.071.01-.143.01-.213a2.163,2.163,0,0,0-.676-1.573,2.219,2.219,0,0,0,1.578-1.859v-.008c.007-.071.011-.143.011-.214a2.165,2.165,0,0,0-.677-1.573,2.22,2.22,0,0,0,1.578-1.859v-.008c.007-.071.011-.143.011-.214a2.168,2.168,0,0,0-.814-1.693,2.218,2.218,0,0,0,1.259-1.738v-.008c.007-.071.011-.143.011-.213a2.156,2.156,0,0,0-.635-1.534M81.27,83.382a.571.571,0,0,1-.57.57H74.589a.571.571,0,0,1-.57-.57V71.965a.571.571,0,0,1,.57-.57H80.7a.571.571,0,0,1,.57.57Zm21.018-11.276a1.533,1.533,0,0,1-1.523,1.343h-.41a.343.343,0,1,0,0,.686,1.485,1.485,0,0,1,1.483,1.483c0,.047,0,.095-.007.141a1.534,1.534,0,0,1-1.523,1.343h-.866a.343.343,0,0,0,0,.686,1.486,1.486,0,0,1,1.484,1.483c0,.047,0,.095-.007.142a1.534,1.534,0,0,1-1.549,1.342h-.84a.343.343,0,1,0,0,.686,1.485,1.485,0,0,1,1.483,1.483c0,.047,0,.094-.007.142a1.534,1.534,0,0,1-1.524,1.342H86.635a1.875,1.875,0,0,1-1.316-.545l-.992-.992a2.528,2.528,0,0,0-1.8-.746h-.57v-8.9a1.7,1.7,0,0,0,1.6-1.186l0-.008a6.751,6.751,0,0,1,1.068-2.136A21.037,21.037,0,0,1,86.518,67.9a13.331,13.331,0,0,0,3.631-4.939v0A13.825,13.825,0,0,0,91,59.505a1.023,1.023,0,0,1,1.016-.9h.1a1.942,1.942,0,0,1,1.94,1.94,10.5,10.5,0,0,1-.941,4.313c-.19.44-.393.86-.59,1.267a15.8,15.8,0,0,0-.914,2.149v0a1.71,1.71,0,0,0,1.644,2.2h7.561a1.483,1.483,0,0,1,1.483,1.484c0,.047,0,.094-.007.141" transform="translate(-11300.066 -22550.271)" fill="#fff"/>
  </g>
</svg>
