<svg xmlns="http://www.w3.org/2000/svg" width="15" height="13.293" viewBox="0 0 15 13.293">
  <g id="Group_8928" data-name="Group 8928" transform="translate(-0.002 12.991)">
    <g id="Group_8927" data-name="Group 8927" transform="translate(0.002 0.301) rotate(-90)">
      <path id="Path_5772" data-name="Path 5772" d="M1.481,15A1.481,1.481,0,0,1,0,13.519V1.481A1.481,1.481,0,0,1,.859.137c.527-.243.388-.157.826.216l3.8,3.228c.625.53.7.362.172.985a1.484,1.484,0,0,1-2.089.17L2.207,3.58v9.938C2.207,14.337,2.3,15,1.481,15Z" transform="translate(7.286)" fill="#4ddd37"/>
      <path id="Path_5772-2" data-name="Path 5772" d="M1.481,15A1.481,1.481,0,0,1,0,13.519V1.481A1.481,1.481,0,0,1,.859.137c.527-.243.388-.157.826.216l3.8,3.228c.625.53.7.362.172.985a1.484,1.484,0,0,1-2.089.17L2.207,3.58v9.938C2.207,14.337,2.3,15,1.481,15Z" transform="translate(6.007 15) rotate(180)" fill="#4ddd37"/>
    </g>
  </g>
</svg>
