<svg xmlns="http://www.w3.org/2000/svg" width="29.167" height="35" viewBox="0 0 29.167 35">
  <g id="Group_4799" data-name="Group 4799" transform="translate(-547.552 -90.858)">
    <g id="bell" transform="translate(547.552 90.858)">
      <path id="Path_1128" data-name="Path 1128" d="M30.261,24.665a9.768,9.768,0,0,1-3.469-7.474V13.125a10.217,10.217,0,0,0-8.75-10.092V1.458a1.458,1.458,0,1,0-2.917,0V3.033a10.215,10.215,0,0,0-8.75,10.092v4.066a9.779,9.779,0,0,1-3.483,7.486,2.552,2.552,0,0,0,1.66,4.49H28.615a2.552,2.552,0,0,0,1.646-4.5Z" transform="translate(-2 0)" fill="#f9f9f9"/>
      <path id="Path_1129" data-name="Path 1129" d="M13.684,25.375A5.477,5.477,0,0,0,19.042,21H8.326A5.477,5.477,0,0,0,13.684,25.375Z" transform="translate(0.899 9.625)" fill="#f9f9f9"/>
    </g>
  </g>
</svg>
