<svg xmlns="http://www.w3.org/2000/svg" width="15" height="15" viewBox="0 0 15 15">
  <path id="Path_6318" data-name="Path 6318" d="M3.579,8.664v2.893a1.136,1.136,0,0,0,1.184,1.085,1.136,1.136,0,0,0,1.184-1.085V8.664A1.136,1.136,0,0,0,4.763,7.58,1.136,1.136,0,0,0,3.579,8.664Zm4.737,0v2.893A1.136,1.136,0,0,0,9.5,12.642a1.136,1.136,0,0,0,1.184-1.085V8.664A1.136,1.136,0,0,0,9.5,7.58,1.136,1.136,0,0,0,8.316,8.664ZM3.184,16.257H15.816a1.089,1.089,0,1,0,0-2.169H3.184a1.089,1.089,0,1,0,0,2.169Zm9.868-7.593v2.893a1.189,1.189,0,0,0,2.368,0V8.664a1.189,1.189,0,0,0-2.368,0ZM8.766,1.426,2.529,4.434a.892.892,0,0,0-.529.8.948.948,0,0,0,.987.9H16.021a.946.946,0,0,0,.979-.9.892.892,0,0,0-.529-.8L10.234,1.426A1.687,1.687,0,0,0,8.766,1.426Z" transform="translate(-2 -1.258)" fill="#fbc02d"/>
</svg>
