<svg id="Group_9708" data-name="Group 9708" xmlns="http://www.w3.org/2000/svg" xmlns:xlink="http://www.w3.org/1999/xlink" width="60" height="60" viewBox="0 0 60 60">
  <defs>
    <clipPath id="clip-path">
      <rect id="Rectangle_5143" data-name="Rectangle 5143" width="60" height="60" fill="none"/>
    </clipPath>
  </defs>
  <g id="Group_9326" data-name="Group 9326" clip-path="url(#clip-path)">
    <path id="Path_6319" data-name="Path 6319" d="M60,30A30,30,0,1,1,30,0,30,30,0,0,1,60,30" transform="translate(0 -0.001)" fill="#1b3d6c"/>
    <path id="Path_6320" data-name="Path 6320" d="M132.577,87.853c-8.638-4.715-23.39-14.123-23.39-14.123l-.058,6.249,3.212,5.935L95.235,99.078s6.654,6.9,8.757,8.935c2.034,1.976,5.471,5.037,7.5,7.019,21.025-6.86,21.37-26.905,21.087-27.179" transform="translate(-72.792 -56.355)" fill="#0b2c58"/>
    <path id="Path_6321" data-name="Path 6321" d="M120.284,54.577l-5.163-2.583-8.256,16.484-2.514,5.013,6.2,5.983,1.54.771,1.778.9,2.853-5.682L125.8,57.336Z" transform="translate(-79.76 -39.741)" fill="#39854a"/>
    <path id="Path_6322" data-name="Path 6322" d="M120.284,54.577l-5.163-2.583-8.256,16.484-2.514,5.013,6.2,5.983,1.54.771,1.778.9,2.853-5.682L125.8,57.336Z" transform="translate(-79.76 -39.741)" fill="none" stroke="#fff" stroke-width="1"/>
    <path id="Path_6323" data-name="Path 6323" d="M118.69,86.8l-.617,1.233-4.924-2.469.617-1.233-1.232-.616,9.05-18.058,1.232.616.616-1.232,4.923,2.469-.616,1.232,1.231.617-9.048,18.057Z" transform="translate(-86.014 -49.715)" fill="#4aa05c"/>
    <path id="Path_6324" data-name="Path 6324" d="M118.69,86.8l-.617,1.233-4.924-2.469.617-1.233-1.232-.616,9.05-18.058,1.232.616.616-1.232,4.923,2.469-.616,1.232,1.231.617-9.048,18.057Z" transform="translate(-86.014 -49.715)" fill="none" stroke="#fff" stroke-width="1"/>
    <rect id="Rectangle_5141" data-name="Rectangle 5141" width="13.936" height="31.09" transform="translate(22.674 11.372)" fill="#39854a"/>
    <rect id="Rectangle_5142" data-name="Rectangle 5142" width="13.936" height="31.09" transform="translate(22.674 11.372)" fill="none" stroke="#fff" stroke-width="1"/>
    <path id="Path_6325" data-name="Path 6325" d="M114.041,86.8h-6.019v-1.45h-1.5V64.13h1.506V62.68h6.018V64.13h1.506V85.362l-1.506.007Z" transform="translate(-81.417 -47.909)" fill="#4aa05c"/>
    <path id="Path_6326" data-name="Path 6326" d="M114.041,86.8h-6.019v-1.45h-1.5V64.13h1.506V62.68h6.018V64.13h1.506V85.362l-1.506.007Z" transform="translate(-81.417 -47.909)" fill="none" stroke="#fff" stroke-width="1"/>
    <path id="Path_6327" data-name="Path 6327" d="M116.848,102.253a2.724,2.724,0,1,1-2.725,2.724,2.724,2.724,0,0,1,2.725-2.724" transform="translate(-87.229 -78.157)" fill="#39854a"/>
    <path id="Path_6328" data-name="Path 6328" d="M116.848,102.253a2.724,2.724,0,1,1-2.725,2.724,2.724,2.724,0,0,1,2.725-2.724" transform="translate(-87.229 -78.157)" fill="none" stroke="#fff" stroke-width="1"/>
    <path id="Path_6329" data-name="Path 6329" d="M67.359,81a6.677,6.677,0,1,1-6.677-6.677A6.677,6.677,0,0,1,67.359,81" transform="translate(-41.278 -56.808)" fill="#092448"/>
    <circle id="Ellipse_767" data-name="Ellipse 767" cx="6.677" cy="6.677" r="6.677" transform="translate(12.726 17.515)" fill="none" stroke="#fff" stroke-width="1"/>
    <path id="Path_6330" data-name="Path 6330" d="M73.469,94.638h1.872V91.028h1.51l-2.446-3.539-2.446,3.539h1.51Z" transform="translate(-55.001 -66.872)" fill="#fff"/>
  </g>
</svg>
