<svg xmlns="http://www.w3.org/2000/svg" width="32.086" height="32.088" viewBox="0 0 32.086 32.088">
  <g id="Group_4798" data-name="Group 4798" transform="translate(-621.25 -95.251)">
    <g id="Group_3563" data-name="Group 3563" transform="translate(621.25 95.251)">
      <g id="megaphone">
        <g id="Group_4" data-name="Group 4" transform="translate(16.043 7.919)">
          <g id="Group_3" data-name="Group 3">
            <path id="Path_14" data-name="Path 14" d="M.016,138.6V126.368c.347.032.69.086,1.039.1h9.991a1,1,0,0,1,1,1v1h3.008a1,1,0,0,1,1,1v6.016a1,1,0,0,1-1,1H12.048v1a1,1,0,0,1-1,1h-.608L6.407,149.247a2,2,0,0,1-1.476,1.247,1.963,1.963,0,0,1-1.811-.552L.712,147.555a2,2,0,0,1-.369-2.32L3.708,138.5H1.045C.7,138.519.359,138.573.016,138.6Z" transform="translate(-0.016 -126.368)" fill="#f9f9f9"/>
          </g>
        </g>
        <g id="Group_6" data-name="Group 6">
          <g id="Group_5" data-name="Group 5">
            <path id="Path_15" data-name="Path 15" d="M288.18.485a.711.711,0,0,1,.064-.094.991.991,0,0,1,.419-.321c.006,0,.01-.01.016-.012s.038,0,.058,0A1,1,0,0,1,289.019,0a.932.932,0,0,1,.195.04,1.106,1.106,0,0,1,.112.022,1,1,0,0,1,.439.285c.008.008.02.01.028.018A21.1,21.1,0,0,0,302.054,7.63V20.447a21.1,21.1,0,0,0-12.261,7.263c-.008.01-.022.014-.032.026a.973.973,0,0,1-.249.193c-.03.018-.054.044-.084.058a1.032,1.032,0,0,1-.409.088,1.047,1.047,0,0,1-.339-.058c-.006,0-.01-.01-.016-.012a.975.975,0,0,1-.419-.321c-.024-.032-.042-.06-.064-.094a.97.97,0,0,1-.165-.517V1A.97.97,0,0,1,288.18.485Z" transform="translate(-288.016)" fill="#f9f9f9"/>
          </g>
        </g>
      </g>
    </g>
  </g>
</svg>
