<svg id="Group_9431" data-name="Group 9431" xmlns="http://www.w3.org/2000/svg" xmlns:xlink="http://www.w3.org/1999/xlink" width="60" height="60" viewBox="0 0 60 60">
  <defs>
    <clipPath id="clip-path">
      <rect id="Rectangle_5139" data-name="Rectangle 5139" width="60" height="60" fill="none"/>
    </clipPath>
  </defs>
  <g id="Group_9323" data-name="Group 9323" clip-path="url(#clip-path)">
    <path id="Path_6302" data-name="Path 6302" d="M59.953,30A29.977,29.977,0,1,1,29.977,0,29.988,29.988,0,0,1,59.953,30" transform="translate(0 -0.001)" fill="#1b3d6c"/>
    <path id="Path_6303" data-name="Path 6303" d="M111.113,82.536c1.571,1.586,8.463,6.18,17.094,11.061.283.283-.062,21.031-21.07,28.131-2.026-2.051-5.461-5.219-7.493-7.265q-5.065-5.077-10.14-10.146c-.089-.09-.278-.139-.216-.336a.213.213,0,0,1,.23,0,7.33,7.33,0,0,0,1.3.428,1.684,1.684,0,0,0,.6.045" transform="translate(-68.254 -63.086)" fill="#0b2c58"/>
    <path id="Path_6304" data-name="Path 6304" d="M87.939,65.1A17.023,17.023,0,1,1,70.916,48.063,17.03,17.03,0,0,1,87.939,65.1" transform="translate(-41.203 -36.737)" fill="#1b3d6c"/>
    <path id="Path_6305" data-name="Path 6305" d="M76.371,54.036a15.633,15.633,0,0,0-9.826,3.458,7.213,7.213,0,0,1-5.866,13.079A15.713,15.713,0,1,0,76.371,54.036" transform="translate(-46.391 -41.302)" fill="#4aa05c"/>
    <path id="Path_6306" data-name="Path 6306" d="M76.371,54.036a15.633,15.633,0,0,0-9.826,3.458,7.213,7.213,0,0,1-5.866,13.079A15.713,15.713,0,1,0,76.371,54.036Z" transform="translate(-46.391 -41.302)" fill="none" stroke="#fff" stroke-width="1"/>
    <path id="Path_6307" data-name="Path 6307" d="M102.31,125.752a16.019,16.019,0,0,0-5.393,1.081c-1.478.592-3.234,1.634-3.234,3.235v2.158H110.94v-2.158a2.561,2.561,0,0,0-.943-1.885,7.479,7.479,0,0,0-2.291-1.35,16.02,16.02,0,0,0-5.4-1.08Z" transform="translate(-71.623 -96.118)" fill="#377b45"/>
    <path id="Path_6308" data-name="Path 6308" d="M102.31,125.752a16.019,16.019,0,0,0-5.393,1.081c-1.478.592-3.234,1.634-3.234,3.235v2.158H110.94v-2.158a2.561,2.561,0,0,0-.943-1.885,7.479,7.479,0,0,0-2.291-1.35,16.02,16.02,0,0,0-5.4-1.08Z" transform="translate(-71.623 -96.118)" fill="none" stroke="#fff" stroke-width="1"/>
    <path id="Path_6309" data-name="Path 6309" d="M51.219,70.976a5.671,5.671,0,1,0,5.667,5.671,5.669,5.669,0,0,0-5.667-5.671" transform="translate(-34.826 -54.25)" fill="#2d683a"/>
    <ellipse id="Ellipse_765" data-name="Ellipse 765" cx="5.667" cy="5.671" rx="5.667" ry="5.671" transform="translate(10.726 16.726)" fill="#0b2c58" stroke="#fff" stroke-width="1"/>
    <path id="Path_6311" data-name="Path 6311" d="M58.228,82.061H56.633v1.594a.8.8,0,1,1-1.593,0V82.061H53.448a.8.8,0,0,1,0-1.594H55.04v-1.6a.8.8,0,1,1,1.593,0v1.6h1.594a.8.8,0,0,1,0,1.594Z" transform="translate(-39.445 -58.866)" fill="#fff"/>
    <path id="Path_6312" data-name="Path 6312" d="M116.312,79.949a4.318,4.318,0,1,0,4.314,4.318,4.316,4.316,0,0,0-4.314-4.318Z" transform="translate(-85.626 -61.109)" fill="#377b45"/>
    <path id="Path_6313" data-name="Path 6313" d="M116.312,79.949a4.318,4.318,0,1,0,4.314,4.318,4.316,4.316,0,0,0-4.314-4.318Z" transform="translate(-85.626 -61.109)" fill="none" stroke="#fff" stroke-width="1"/>
  </g>
</svg>
