<svg xmlns="http://www.w3.org/2000/svg" width="15" height="15" viewBox="0 0 15 15">
  <g id="Group_9468" data-name="Group 9468" transform="translate(0 2)">
    <g id="business-and-trade" transform="translate(0.293 -1.707)">
      <path id="Path_1081" data-name="Path 1081" d="M7.826,1.2,1.225.191A1.059,1.059,0,0,0,.372.427,1.085,1.085,0,0,0,0,1.238V13.987a.6.6,0,0,0,.6.605H2.552V11.415A1.052,1.052,0,0,1,3.6,10.357H5.1a1.052,1.052,0,0,1,1.051,1.059v3.177H8.708V2.249A1.057,1.057,0,0,0,7.826,1.2ZM3.3,9H2.4a.454.454,0,0,1,0-.908h.9A.454.454,0,0,1,3.3,9Zm0-1.815H2.4a.454.454,0,0,1,0-.908h.9a.454.454,0,0,1,0,.908Zm0-1.815H2.4a.454.454,0,0,1,0-.908h.9a.454.454,0,0,1,0,.908Zm0-1.815H2.4a.454.454,0,0,1,0-.908h.9a.454.454,0,0,1,0,.908ZM6.306,9h-.9a.454.454,0,0,1,0-.908h.9a.454.454,0,0,1,0,.908Zm0-1.815h-.9a.454.454,0,0,1,0-.908h.9a.454.454,0,0,1,0,.908Zm0-1.815h-.9a.454.454,0,0,1,0-.908h.9a.454.454,0,0,1,0,.908Zm0-1.815h-.9a.454.454,0,0,1,0-.908h.9a.454.454,0,0,1,0,.908Z" transform="translate(0 -0.178)" fill="#dadada"/>
      <path id="Path_1082" data-name="Path 1082" d="M19.776,10.253l-4.276-.9v8.864h4.054A1.056,1.056,0,0,0,20.6,17.156V11.288A1.052,1.052,0,0,0,19.776,10.253ZM18.353,16.4h-.9a.454.454,0,0,1,0-.908h.9a.454.454,0,0,1,0,.908Zm0-1.815h-.9a.454.454,0,0,1,0-.908h.9a.454.454,0,0,1,0,.908Zm0-1.815h-.9a.454.454,0,0,1,0-.908h.9a.454.454,0,0,1,0,.908Z" transform="translate(-6.191 -3.801)" fill="#dadada"/>
    </g>
    <rect id="Rectangle_3520" data-name="Rectangle 3520" width="15" height="15" transform="translate(0 -2)" fill="none"/>
  </g>
</svg>
