<svg xmlns="http://www.w3.org/2000/svg" width="60" height="60" viewBox="0 0 60 60">
  <g id="Group_9709" data-name="Group 9709" transform="translate(16042.5 -3665.077)">
    <path id="Path_6314" data-name="Path 6314" d="M60,30A30,30,0,1,1,30,0,30,30,0,0,1,60,30" transform="translate(-16042.5 3665.076)" fill="#1b3d6c"/>
    <path id="Path_6315" data-name="Path 6315" d="M111.113,82.536c1.571,1.585,8.463,6.176,17.094,11.052.283.283-.062,21.015-21.07,28.11-2.026-2.049-5.461-5.215-7.493-7.259Q94.579,109.366,89.5,104.3c-.089-.09-.278-.139-.216-.336a.213.213,0,0,1,.23,0,7.337,7.337,0,0,0,1.3.428,1.685,1.685,0,0,0,.6.045" transform="translate(-16111.36 3602.021)" fill="#0b2c58"/>
    <path id="Path_6316" data-name="Path 6316" d="M92.089,69.785A15.749,15.749,0,1,1,76.34,54.036,15.749,15.749,0,0,1,92.089,69.785" transform="translate(-16088.823 3623.795)" fill="#ffc450"/>
    <circle id="Ellipse_766" data-name="Ellipse 766" cx="15.749" cy="15.749" r="15.749" transform="translate(-16028.232 3677.831)" fill="none" stroke="#fff" stroke-width="1"/>
    <path id="Path_6317" data-name="Path 6317" d="M88.86,89.278c-2.021,0-4.273-.033-6.295-.033a1.106,1.106,0,0,1-1.258-1.258V86.543c-1.274,1.28-2.576,2.581-3.861,3.867l3.834,3.834c.011-.071.016-.143.022-.209.005-.5-.006-1.005.005-1.51a1.053,1.053,0,0,1,1.033-1.049c1.137-.016,2.269-.016,3.405,0a1.088,1.088,0,0,1-.028,2.175c-.62.011-1.247.006-1.867.006h-.363v3.186a1.112,1.112,0,0,1-1.961.824q-3.205-3.222-6.432-6.437a1.109,1.109,0,0,1,.011-1.741q3.205-3.214,6.415-6.421a1.106,1.106,0,0,1,1.307-.329,1.133,1.133,0,0,1,.665,1.148c-.011,1.044,0,2.087,0,3.175h6.459a1.115,1.115,0,0,1,1.258,1.258v1.856l4.932-4.229c-1.637-1.4-3.252-2.79-4.911-4.213-.011.132-.022.214-.022.3,0,.56.005,1.126-.005,1.686a1.09,1.09,0,0,1-1.1,1.115c-1.093.011-2.192.011-3.285,0a1.09,1.09,0,1,1-.005-2.181c.615-.011,1.225-.005,1.84-.005H89c.005-.137.016-.242.016-.346,0-.956.005-1.911,0-2.867a1.089,1.089,0,0,1,.637-1.1,1.113,1.113,0,0,1,1.252.225q3.782,3.254,7.574,6.5a1.081,1.081,0,0,1-.005,1.763q-3.8,3.263-7.6,6.52a1.084,1.084,0,0,1-1.23.209,1.067,1.067,0,0,1-.632-1.071c.006-.956-.011-2.444-.011-3.4" transform="translate(-16099.595 3605.314)" fill="#ffc450"/>
    <path id="Path_6318" data-name="Path 6318" d="M88.86,89.278c-2.021,0-4.273-.033-6.295-.033a1.106,1.106,0,0,1-1.258-1.258V86.543c-1.274,1.28-2.576,2.581-3.861,3.867l3.834,3.834c.011-.071.016-.143.022-.209.005-.5-.006-1.005.005-1.51a1.053,1.053,0,0,1,1.033-1.049c1.137-.016,2.269-.016,3.405,0a1.088,1.088,0,0,1-.028,2.175c-.62.011-1.247.006-1.867.006h-.363v3.186a1.112,1.112,0,0,1-1.961.824q-3.205-3.222-6.432-6.437a1.109,1.109,0,0,1,.011-1.741q3.205-3.214,6.415-6.421a1.106,1.106,0,0,1,1.307-.329,1.133,1.133,0,0,1,.665,1.148c-.011,1.044,0,2.087,0,3.175h6.459a1.115,1.115,0,0,1,1.258,1.258v1.856l4.932-4.229c-1.637-1.4-3.252-2.79-4.911-4.213-.011.132-.022.214-.022.3,0,.56.005,1.126-.005,1.686a1.09,1.09,0,0,1-1.1,1.115c-1.093.011-2.192.011-3.285,0a1.09,1.09,0,1,1-.005-2.181c.615-.011,1.225-.005,1.84-.005H89c.005-.137.016-.242.016-.346,0-.956.005-1.911,0-2.867a1.089,1.089,0,0,1,.637-1.1,1.113,1.113,0,0,1,1.252.225q3.782,3.254,7.574,6.5a1.081,1.081,0,0,1-.005,1.763q-3.8,3.263-7.6,6.52a1.084,1.084,0,0,1-1.23.209,1.067,1.067,0,0,1-.632-1.071c.006-.956-.011-2.444-.011-3.4" transform="translate(-16099.595 3605.314)" fill="#ce720f" stroke="#fff" stroke-width="1"/>
    <rect id="Rectangle_5140" data-name="Rectangle 5140" width="60" height="59.953" transform="translate(-16042.5 3665.077)" fill="none"/>
  </g>
</svg>
