<svg xmlns="http://www.w3.org/2000/svg" xmlns:xlink="http://www.w3.org/1999/xlink" width="110" height="23.768" viewBox="0 0 110 23.768">
  <defs>
    <linearGradient id="linear-gradient" x1="1.668" y1="-2.371" x2="1.124" y2="-1.127" gradientUnits="objectBoundingBox">
      <stop offset="0" stop-color="#2b479e"/>
      <stop offset="1" stop-color="#18204f"/>
    </linearGradient>
    <linearGradient id="linear-gradient-2" x1="1.573" y1="-3.008" x2="1.054" y2="-1.3" xlink:href="#linear-gradient"/>
    <linearGradient id="linear-gradient-3" x1="1.55" y1="-2.839" x2="1.006" y2="-1.083" xlink:href="#linear-gradient"/>
    <linearGradient id="linear-gradient-4" x1="1.696" y1="-2.03" x2="1.027" y2="-0.563" xlink:href="#linear-gradient"/>
    <linearGradient id="linear-gradient-5" x1="1.759" y1="-2.561" x2="0.92" y2="-0.754" xlink:href="#linear-gradient"/>
    <linearGradient id="linear-gradient-6" x1="1.394" y1="-2.188" x2="0.843" y2="-0.479" xlink:href="#linear-gradient"/>
    <linearGradient id="linear-gradient-7" x1="1.346" y1="-2.482" x2="0.976" y2="-1.164" xlink:href="#linear-gradient"/>
    <linearGradient id="linear-gradient-8" x1="0.771" y1="0.182" x2="0.19" y2="0.976" gradientUnits="objectBoundingBox">
      <stop offset="0" stop-color="#3a69b2"/>
      <stop offset="1" stop-color="#212a5f"/>
    </linearGradient>
    <linearGradient id="linear-gradient-9" x1="0.5" y1="0.578" x2="0.5" y2="-0.029" xlink:href="#linear-gradient-8"/>
    <linearGradient id="linear-gradient-10" x1="-0.145" y1="1.187" x2="0.819" y2="0.068" gradientUnits="objectBoundingBox">
      <stop offset="0" stop-color="#212a5f"/>
      <stop offset="0.52" stop-color="#3a69b2"/>
      <stop offset="1" stop-color="#212a5f"/>
    </linearGradient>
    <linearGradient id="linear-gradient-11" x1="0.475" y1="0.516" x2="0.899" y2="1.046" xlink:href="#linear-gradient-8"/>
    <linearGradient id="linear-gradient-12" x1="0.5" y1="-0.012" x2="0.5" y2="1.007" gradientUnits="objectBoundingBox">
      <stop offset="0" stop-color="#3a69b2"/>
      <stop offset="0.54" stop-color="#223e98"/>
      <stop offset="1" stop-color="#3a69b2"/>
    </linearGradient>
  </defs>
  <g id="Group_3" data-name="Group 3" transform="translate(-171.502 -16.332)">
    <g id="Group_2214" data-name="Group 2214" transform="translate(207.062 20.767)">
      <path id="Path_2059" data-name="Path 2059" d="M508.093,506.38a11.3,11.3,0,0,0-4.013.6,1.034,1.034,0,0,0-.809,1.185v13.219c0,.479.146.645.623.645h1.14c.479,0,.645-.166.645-.645v-3.992a8.05,8.05,0,0,0,2.162.376c3.139,0,4.636-1.559,4.636-4.344v-2.849C512.479,507.917,511.107,506.38,508.093,506.38Zm1.975,6.962c0,1.5-.75,2.225-2.39,2.225a7.72,7.72,0,0,1-2-.314v-6.173c0-.145.02-.208.186-.269a6.9,6.9,0,0,1,1.892-.232c1.5,0,2.308.708,2.308,2.058Z" transform="translate(-487.946 -502.7)" fill="url(#linear-gradient)"/>
      <path id="Path_2060" data-name="Path 2060" d="M611.956,512.83c.706,0,.935-.354.935-.9v-1.261c0-2.39-1.517-4.3-4.821-4.3-3.138,0-4.82,1.6-4.82,4.484v2.459c0,2.557,1.372,4.449,4.781,4.449,2.37,0,3.741-.77,4.49-2,.291-.457.224-.811-.25-1.039l-.727-.394c-.5-.27-.728-.209-1.039.249a2.734,2.734,0,0,1-2.453,1.1c-1.539,0-2.39-.728-2.39-2.078v-.773Zm-6.3-2.307c0-1.351.851-2.121,2.41-2.121,1.581,0,2.411.77,2.411,2.121v.457h-4.82Z" transform="translate(-576.718 -502.691)" fill="url(#linear-gradient-2)"/>
      <path id="Path_2061" data-name="Path 2061" d="M713.6,506.37a10.7,10.7,0,0,0-4.094.706,1.037,1.037,0,0,0-.792,1.185v8.544c0,.478.146.644.623.644h1.144c.479,0,.645-.166.645-.644v-7.754a.225.225,0,0,1,.126-.208,7.58,7.58,0,0,1,2-.271c1.538,0,2.265.666,2.265,2.038v6.195c0,.478.166.643.645.643h1.121c.479,0,.645-.166.645-.643v-6.257C717.919,507.908,716.568,506.37,713.6,506.37Z" transform="translate(-670.356 -502.691)" fill="url(#linear-gradient-3)"/>
      <path id="Path_2062" data-name="Path 2062" d="M810.88,491.619c.479,0,.623-.166.623-.645v-.956c0-.478-.144-.623-.623-.623h-2.39v-1.872c0-.478-.146-.623-.623-.623h-1.144c-.479,0-.645.146-.645.623v1.871h-1.414c-.478,0-.645.145-.645.623v.956c0,.478.166.645.645.645h1.414v3.949c0,3.6,1.268,4.6,4.781,4.6.477,0,.643-.186.643-.665v-.978c0-.477-.166-.643-.643-.643-1.747,0-2.37-.354-2.37-2.391v-3.867Z" transform="translate(-754.982 -485.403)" fill="url(#linear-gradient-4)"/>
      <path id="Path_2063" data-name="Path 2063" d="M892.984,509.15H892.3a10.892,10.892,0,0,0-3.866.623,1.017,1.017,0,0,0-.792,1.164v8.336c0,.478.147.644.624.644h1.143c.478,0,.645-.166.645-.644v-7.421a.242.242,0,0,1,.187-.271,7.464,7.464,0,0,1,1.994-.249h.75c.478,0,.623-.146.623-.623v-.936C893.607,509.295,893.461,509.15,892.984,509.15Z" transform="translate(-829.227 -505.159)" fill="url(#linear-gradient-5)"/>
      <path id="Path_2064" data-name="Path 2064" d="M954.077,506.37c-2.184,0-3.6.811-4.325,2.161-.249.479-.1.729.354.936l.852.336c.457.186.582.124.873-.313a2.414,2.414,0,0,1,2.182-1c1.58,0,2.079.77,2.079,2.079v.623a19.791,19.791,0,0,0-2-.1c-3.326,0-4.7.81-4.7,3.306,0,2.161.935,3.363,4.614,3.363a10.079,10.079,0,0,0,3.741-.54c.583-.25.749-.457.749-1.185v-5.381C958.5,508.2,957.486,506.37,954.077,506.37Zm2.018,8.938c0,.188-.063.224-.224.291a9.789,9.789,0,0,1-2.078.166c-1.622,0-1.954-.56-1.954-1.392,0-.873.416-1.393,2-1.393.81,0,1.851.083,2.266.1Z" transform="translate(-884.064 -502.691)" fill="url(#linear-gradient-6)"/>
      <path id="Path_2065" data-name="Path 2065" d="M380.093,488.308H376.8l-.307-.471,0,0L373.21,482.8l-3.427,5.509H366.57l5.1-7.524-4.482-6.653,0-.006-.386-.575h3.221l3.335,5.177,3.018-4.654.34-.522h3.125l-4.882,7.212,4.946,7.265Z" transform="translate(-366.57 -473.55)" fill="url(#linear-gradient-7)"/>
    </g>
    <g id="Group_2213" data-name="Group 2213" transform="translate(171.502 16.333)">
      <path id="Path_2069" data-name="Path 2069" d="M109.136,550.538l.027-.027c-1.569.955-3.822-1.156-4.289-1.784l-.013-.019a.209.209,0,0,0,.145.057.2.2,0,0,0,.142-.06l6.068-6.066,2.915,2.915Z" transform="translate(-98.639 -530.461)" fill="url(#linear-gradient-8)"/>
      <path id="Path_2070" data-name="Path 2070" d="M59.89,478.845l-.027.027h0l-1.5,1.5-.28.28a3.454,3.454,0,0,1-2.458,1.019A3.412,3.412,0,0,1,52.95,480.4l-.022-.028a16.228,16.228,0,0,1-1.583-17.9c1.753-1.556,4.2.705,4.473.918l.013.01a.2.2,0,0,0-.1-.028.218.218,0,0,0-.176.092c-.193.286-.377.586-.547.891a12.114,12.114,0,0,0,.278,12.238l.01.009s.013.028.018.036h0l.009.013v.008c.048.077.1.157.148.232l.081.12.012.016.016.016.013.019C56.069,477.689,58.325,479.8,59.89,478.845Z" transform="translate(-49.368 -458.796)" fill="url(#linear-gradient-9)"/>
      <path id="Path_2071" data-name="Path 2071" d="M204.07,460.82a.216.216,0,0,0-.155-.069.206.206,0,0,0-.1.025.214.214,0,0,0-.048.036l-6.81,6.8-2.909-2.909,5.407-5.405.008-.008h0c.472-.433,2.953-.764,4.588,1.514Z" transform="translate(-177.831 -456.18)" fill="url(#linear-gradient-10)"/>
      <path id="Path_2072" data-name="Path 2072" d="M91.357,452.256l-.021.02-.017.021a3.916,3.916,0,0,1-3.208,1.768,2.232,2.232,0,0,1-1.446-.413L71.678,438.664l-.019-.01-.027-.034h-.006l-.01-.009-.013-.01c-.271-.213-2.72-2.474-4.473-.918.18-.336.377-.662.584-.984a15.893,15.893,0,0,1,1-1.387l.026-.033A3.412,3.412,0,0,1,71.393,434a3.45,3.45,0,0,1,2.457,1.019l17.227,17.227a.205.205,0,0,0,.146.06A.225.225,0,0,0,91.357,452.256Z" transform="translate(-65.139 -434)" fill="url(#linear-gradient-11)"/>
      <path id="Path_2073" data-name="Path 2073" d="M252.308,445.434a16.16,16.16,0,0,1-2.562,8.75,15.82,15.82,0,0,1-1,1.387l-.022.028a3.41,3.41,0,0,1-2.674,1.278,3.454,3.454,0,0,1-2.456-1.018l-2.208-2.207a2.233,2.233,0,0,0,1.446.412,3.908,3.908,0,0,0,3.208-1.765l.017-.021.021-.02h0a.28.28,0,0,0,.035-.041c.056-.084.112-.167.165-.252.041-.063.062-.1.063-.1.112-.185.224-.368.321-.542a12.106,12.106,0,0,0-.545-12.651l-.019-.028h0l-.01-.012c-1.636-2.278-4.116-1.947-4.588-1.514l2.094-2.094A3.452,3.452,0,0,1,246.054,434a3.41,3.41,0,0,1,2.669,1.27l.024.029A16.272,16.272,0,0,1,252.308,445.434Z" transform="translate(-219.864 -434)" fill="url(#linear-gradient-12)"/>
    </g>
  </g>
</svg>
