<svg xmlns="http://www.w3.org/2000/svg" width="190.633" height="39.649" viewBox="0 0 190.633 39.649">
  <g id="Group_4785" data-name="Group 4785" transform="translate(-254.367 -94)">
    <g id="Group_2214" data-name="Group 2214" transform="translate(315.994 100)">
      <path id="Path_2059" data-name="Path 2059" d="M511.628,506.38a19.593,19.593,0,0,0-6.955,1.043,1.793,1.793,0,0,0-1.4,2.053v22.91c0,.83.253,1.117,1.08,1.117h1.976c.83,0,1.117-.287,1.117-1.117v-6.918a13.954,13.954,0,0,0,3.748.651c5.44,0,8.033-2.7,8.033-7.528v-4.938C519.23,509.043,516.852,506.38,511.628,506.38Zm3.423,12.066c0,2.591-1.3,3.856-4.142,3.856a13.374,13.374,0,0,1-3.46-.544v-10.7c0-.251.035-.359.322-.466a11.975,11.975,0,0,1,3.279-.4c2.594,0,4,1.226,4,3.567Z" transform="translate(-476.713 -500.002)" fill="#f9f9f9"/>
      <path id="Path_2060" data-name="Path 2060" d="M618.337,517.566c1.224,0,1.62-.614,1.62-1.554v-2.186c0-4.142-2.628-7.456-8.354-7.456-5.44,0-8.354,2.772-8.354,7.771v4.26c0,4.431,2.378,7.711,8.286,7.711,4.107,0,6.483-1.335,7.783-3.46.5-.792.389-1.4-.433-1.8l-1.261-.684c-.865-.468-1.261-.362-1.8.431a4.737,4.737,0,0,1-4.251,1.91c-2.667,0-4.142-1.261-4.142-3.6v-1.34Zm-10.914-4c0-2.341,1.475-3.676,4.177-3.676,2.739,0,4.179,1.335,4.179,3.676v.793h-8.354Z" transform="translate(-557.269 -499.994)" fill="#f9f9f9"/>
      <path id="Path_2061" data-name="Path 2061" d="M717.177,506.37a18.547,18.547,0,0,0-7.095,1.224,1.8,1.8,0,0,0-1.371,2.053v14.807c0,.828.253,1.115,1.08,1.115h1.981c.83,0,1.117-.288,1.117-1.115V511.017a.388.388,0,0,1,.218-.359,13.118,13.118,0,0,1,3.458-.47c2.666,0,3.926,1.154,3.926,3.532v10.736c0,.828.287,1.115,1.117,1.115h1.943c.829,0,1.117-.287,1.117-1.115V513.61C724.67,509.035,722.329,506.37,717.177,506.37Z" transform="translate(-642.241 -499.994)" fill="#f9f9f9"/>
      <path id="Path_2062" data-name="Path 2062" d="M815.908,495.079c.83,0,1.08-.287,1.08-1.117V492.3c0-.83-.251-1.08-1.08-1.08h-4.142V487.98c0-.828-.253-1.08-1.08-1.08H808.7c-.83,0-1.117.253-1.117,1.08v3.242h-2.45c-.83,0-1.117.251-1.117,1.08v1.657c0,.829.287,1.117,1.117,1.117h2.45v6.844c0,6.232,2.2,7.965,8.286,7.965.828,0,1.115-.323,1.115-1.152V507.04c0-.828-.288-1.115-1.115-1.115-3.027,0-4.107-.614-4.107-4.144v-6.7Z" transform="translate(-719.034 -484.306)" fill="#f9f9f9"/>
      <path id="Path_2063" data-name="Path 2063" d="M896.9,509.15h-1.189a18.858,18.858,0,0,0-6.7,1.08,1.761,1.761,0,0,0-1.372,2.017v14.448c0,.828.255,1.115,1.082,1.115H890.7c.828,0,1.117-.288,1.117-1.115V513.834a.42.42,0,0,1,.325-.47,12.927,12.927,0,0,1,3.456-.431h1.3c.828,0,1.08-.253,1.08-1.08V510.23C897.981,509.4,897.729,509.15,896.9,509.15Z" transform="translate(-786.409 -502.234)" fill="#f9f9f9"/>
      <path id="Path_2064" data-name="Path 2064" d="M957.505,506.37c-3.784,0-6.234,1.4-7.5,3.746-.431.83-.179,1.263.614,1.622l1.477.583c.793.322,1.008.216,1.513-.542a4.184,4.184,0,0,1,3.783-1.729c2.737,0,3.6,1.335,3.6,3.6v1.08a34.333,34.333,0,0,0-3.458-.181c-5.764,0-8.14,1.4-8.14,5.729,0,3.746,1.62,5.828,8,5.828a17.462,17.462,0,0,0,6.483-.936c1.01-.433,1.3-.793,1.3-2.053V513.8C965.177,509.54,963.413,506.37,957.505,506.37Zm3.5,15.489c0,.326-.109.388-.389.505a17.005,17.005,0,0,1-3.6.287c-2.811,0-3.386-.971-3.386-2.413,0-1.513.721-2.415,3.458-2.415,1.4,0,3.207.144,3.926.181Z" transform="translate(-836.171 -499.994)" fill="#f9f9f9"/>
      <path id="Path_2065" data-name="Path 2065" d="M390.005,499.126H384.3l-.532-.816,0,0-5.686-8.727-5.939,9.547H366.57l8.841-13.04-7.767-11.53-.008-.01-.668-1h5.582l5.78,8.971,5.23-8.066.589-.905h5.416l-8.461,12.5,8.571,12.591Z" transform="translate(-366.57 -473.55)" fill="#f9f9f9"/>
    </g>
    <g id="Group_2213" data-name="Group 2213" transform="translate(254.367 94)">
      <path id="Path_2069" data-name="Path 2069" d="M112.27,556.327l.047-.047c-2.72,1.655-6.623-2-7.433-3.091l-.023-.033a.362.362,0,0,0,.251.1.344.344,0,0,0,.247-.1l10.516-10.512,5.051,5.051Z" transform="translate(-94.079 -521.534)" fill="#f9f9f9"/>
      <path id="Path_2070" data-name="Path 2070" d="M67.6,491.247l-.047.047h0L64.951,493.9l-.486.486a5.983,5.983,0,0,1-4.26,1.766,5.912,5.912,0,0,1-4.63-2.207l-.039-.049a28.124,28.124,0,0,1-2.743-31.027c3.038-2.7,7.281,1.222,7.752,1.591l.023.017a.35.35,0,0,0-.177-.049.36.36,0,0,0-.179.047.356.356,0,0,0-.126.113c-.334.5-.653,1.016-.948,1.544a21,21,0,0,0,.482,21.209l.017.016s.023.049.031.062h0l.016.023v.014c.084.134.169.272.256.4l.14.208a.193.193,0,0,0,.021.027l.027.027.023.033C60.98,489.244,64.891,492.9,67.6,491.247Z" transform="translate(-49.368 -456.501)" fill="#f9f9f9"/>
      <path id="Path_2071" data-name="Path 2071" d="M211.414,462.168a.373.373,0,0,0-.268-.119.358.358,0,0,0-.169.043.37.37,0,0,0-.084.062l-11.8,11.788L194.05,468.9l9.37-9.368.014-.014h0c.818-.75,5.117-1.323,7.952,2.625Z" transform="translate(-165.942 -454.127)" fill="#f9f9f9"/>
      <path id="Path_2072" data-name="Path 2072" d="M109.117,465.639l-.037.035-.029.037a6.787,6.787,0,0,1-5.56,3.064,3.869,3.869,0,0,1-2.506-.715L75.012,442.084l-.033-.018-.047-.058h-.01l-.018-.016-.023-.017c-.47-.369-4.713-4.288-7.752-1.591.313-.583.653-1.148,1.012-1.706a27.618,27.618,0,0,1,1.725-2.4l.045-.056A5.914,5.914,0,0,1,74.518,434a5.98,5.98,0,0,1,4.258,1.766l29.854,29.854a.356.356,0,0,0,.253.1A.388.388,0,0,0,109.117,465.639Z" transform="translate(-63.679 -434)" fill="#f9f9f9"/>
      <path id="Path_2073" data-name="Path 2073" d="M260.31,453.815a28.007,28.007,0,0,1-4.439,15.165,27.325,27.325,0,0,1-1.725,2.4l-.039.049a5.91,5.91,0,0,1-4.633,2.215,5.984,5.984,0,0,1-4.257-1.764l-3.827-3.825a3.869,3.869,0,0,0,2.506.715,6.773,6.773,0,0,0,5.56-3.06l.029-.037.037-.035h0a.488.488,0,0,0,.06-.072c.1-.146.194-.289.286-.437.072-.109.107-.167.109-.169.194-.321.389-.637.556-.938a20.981,20.981,0,0,0-.944-21.925l-.033-.049h0l-.017-.021c-2.835-3.948-7.134-3.375-7.952-2.625l3.629-3.629A5.984,5.984,0,0,1,249.474,434a5.91,5.91,0,0,1,4.626,2.2l.041.051A28.2,28.2,0,0,1,260.31,453.815Z" transform="translate(-204.085 -434)" fill="#f9f9f9"/>
    </g>
  </g>
</svg>
