<svg id="Group_9427" data-name="Group 9427" xmlns="http://www.w3.org/2000/svg" xmlns:xlink="http://www.w3.org/1999/xlink" width="60" height="60" viewBox="0 0 60 60">
  <defs>
    <clipPath id="clip-path">
      <rect id="Rectangle_5111" data-name="Rectangle 5111" width="60" height="60" fill="none"/>
    </clipPath>
  </defs>
  <g id="Group_9257" data-name="Group 9257" clip-path="url(#clip-path)">
    <path id="Path_6262" data-name="Path 6262" d="M36.063,59.349A22.873,22.873,0,0,1,30.786,60,29.466,29.466,0,0,1,5.846,47.867,27.612,27.612,0,0,1,.226,33.92C-1.04,22.306,3,12.89,12.234,5.788A27.789,27.789,0,0,1,26,.257,29.215,29.215,0,0,1,47.954,6.093,29.421,29.421,0,0,1,59.107,23.444a31.827,31.827,0,0,1,.7,8.334.727.727,0,0,1-.052.176.192.192,0,0,1-.11-.192c.1-.582-.281-.9-.639-1.261q-7.854-7.858-15.7-15.726c-.209-.209-.393-.444-.621-.633a.668.668,0,0,0-.543-.028c-1.486.349-2.972.7-4.453,1.066-.147.037-.337.034-.382.217s.11.29.228.38a13.241,13.241,0,0,1,1.083,1.095c2.969,3.008,5.969,5.985,8.947,8.985.172.173.4.313.436.588a3.909,3.909,0,0,1-1.918,1.709q-2.133-2.143-4.27-4.282a3.167,3.167,0,0,0-.482-.437,8.192,8.192,0,0,0-1.555-1.34,2.6,2.6,0,0,0-.644-.719,29.064,29.064,0,0,0-2.093-2.03A3.276,3.276,0,0,0,33.7,18.29c-3.054.529-6.078,1.208-9.094,1.919-2.318.546-4.636,1.1-6.941,1.7a3.606,3.606,0,0,0-2.775,2.74.775.775,0,0,1-.182.422,1.178,1.178,0,0,0-.033.554q0,5.083,0,10.165a1.234,1.234,0,0,1-.061.553.155.155,0,0,1-.038.05.4.4,0,0,0,.046-.008c.188-.032.2.122.209.231a3.616,3.616,0,0,0,1.452,2.6.686.686,0,0,1,.151.174.984.984,0,0,0,.306.4q5.52,5.529,11.037,11.061,3.835,3.837,7.657,7.688c.239.241.633.379.632.814" transform="translate(0 0)" fill="#1b3d6c"/>
    <path id="Path_6263" data-name="Path 6263" d="M97.889,71.179a.559.559,0,0,1,.3.207l4.229,4.238a.622.622,0,0,1,.211.3c-.033.24-.248.3-.408.416a4.2,4.2,0,0,0-.986.681c.183.147.323.037.451-.031a10.375,10.375,0,0,0,3.4-2.739,4.669,4.669,0,0,0-.389-6.412A14.017,14.017,0,0,0,99.769,64.7c-1.307-.54-1.141-.271-.816-1.618a2.926,2.926,0,0,1,.384-1.19q2.717,2.739,5.434,5.478,5.667,5.683,11.345,11.354c.326.326.075.716.182,1.059a26.763,26.763,0,0,1-2.119,9.348,29.656,29.656,0,0,1-21.161,17.992,3.667,3.667,0,0,1-.412.055,3.442,3.442,0,0,0-.7-.742q-3.5-3.543-7.015-7.076Q79.049,93.515,73.2,87.678c-.1-.1-.32-.16-.249-.387a.246.246,0,0,1,.265-.006,8.459,8.459,0,0,0,1.5.494,1.933,1.933,0,0,0,.7.051q9.448,0,18.9,0a2.024,2.024,0,0,0,.809-.035c.123-.146.3-.148.467-.19a3.551,3.551,0,0,0,2.775-3.538q.007-5.337,0-10.674a3.8,3.8,0,0,0-.355-1.679.7.7,0,0,1-.119-.533" transform="translate(-56.297 -47.742)" fill="#0b2c58"/>
    <path id="Path_6264" data-name="Path 6264" d="M67.346,100.975a5.135,5.135,0,0,1-1.6-.557,3.958,3.958,0,0,1-1.76-3.106c-.1-.106-.057-.238-.057-.358q0-5.289,0-10.579c0-.12-.042-.252.058-.357a3.822,3.822,0,0,1,3.02-3.29l2.126-.527c4.633-1.142,9.271-2.267,13.972-3.1a3.212,3.212,0,0,1,3.377,1.165,2.011,2.011,0,0,1,.55,1.625c0,.658.019.67.686.68a1.852,1.852,0,0,1,1.434.418,4.645,4.645,0,0,1,1.531,1.313,4.741,4.741,0,0,1,.614,2.554c-.02,3.389,0,6.779,0,10.168a3.7,3.7,0,0,1-3.261,3.912c-.045.008-13.689.1-20.242.1-.148,0-.312.062-.445-.064" transform="translate(-49.337 -60.957)" fill="#fcfaf9"/>
    <path id="Path_6265" data-name="Path 6265" d="M178.422,83.3a2.4,2.4,0,0,0-.527-.589q-4.309-4.325-8.622-8.646c-.087-.088-.162-.188-.242-.283.222-.206.326.036.442.136.663.567,1.305,1.159,1.977,1.716.372.308.452.275.58-.2.123-.452.231-.908.342-1.363.083-.343.266-.482.611-.345a13.607,13.607,0,0,1,5.542,3.456,4.241,4.241,0,0,1,.389,5.729c-.124.174-.23.383-.491.384" transform="translate(-130.466 -56.83)" fill="#0b2c58"/>
    <path id="Path_6266" data-name="Path 6266" d="M173.409,73.417a4.1,4.1,0,0,0,.647-5.175A8.733,8.733,0,0,0,171,65.417a19.813,19.813,0,0,0-3.109-1.483c-.234-.093-.344-.078-.4.211-.105.55-.254,1.092-.4,1.633-.118.439-.263.485-.6.188-.705-.613-1.4-1.24-2.106-1.851-.1-.089-.166-.276-.364-.215l-1.285-1.253c-.3-.291-.261-.486.134-.581,1.641-.4,3.285-.779,4.925-1.178a.412.412,0,0,1,.455.125c-.147.621-.279,1.247-.449,1.861-.089.32-.052.468.3.6a15.721,15.721,0,0,1,4.656,2.523,6.361,6.361,0,0,1,2.326,3.309,4.626,4.626,0,0,1-.973,4.125,10.9,10.9,0,0,1-3.674,2.906c-.178.094-.37.163-.476-.071-.092-.2.073-.3.232-.391a9.235,9.235,0,0,0,1.352-.826,6.964,6.964,0,0,0,1.867-1.628" transform="translate(-125.453 -46.951)" fill="#fbf9f8"/>
    <path id="Path_6267" data-name="Path 6267" d="M165.482,87.188a4.006,4.006,0,0,0-1.858-.309c-.325.029-.4-.107-.379-.4a3.451,3.451,0,0,0-.434-2.014,21.03,21.03,0,0,1,2.008,1.944c.24.236.582.4.663.779" transform="translate(-125.666 -65.153)" fill="#092448"/>
    <path id="Path_6268" data-name="Path 6268" d="M92.7,103.44c-2.525.006-5.05.006-7.575.019a2.33,2.33,0,0,0-2.232,1.42,2.42,2.42,0,0,0,1.57,3.35c.1.028,5.452.163,7.8.144.39,0,.491.11.489.493-.006.854.7,5.179-3.029,5.559q-10.01.014-20.02,0a3.129,3.129,0,0,1-3.109-3.153q-.015-5.439,0-10.878a3.185,3.185,0,0,1,3.207-3.218q9.917-.01,19.833,0a3.14,3.14,0,0,1,3.143,2.812c-.078.981-.012,1.964-.037,2.946a1.046,1.046,0,0,1-.044.506" transform="translate(-51.4 -74.954)" fill="#4baf71"/>
    <path id="Path_6269" data-name="Path 6269" d="M89.111,84.408c.526-.137.949-.255,1.375-.356,3.8-.906,7.6-1.811,11.44-2.511a4.652,4.652,0,0,1,2.352-.064,2.44,2.44,0,0,1,1.569,2.81c-.033.132-.1.185-.224.179-.078,0-.156,0-.234,0H89.3a1.353,1.353,0,0,1-.193-.057" transform="translate(-68.781 -62.746)" fill="#2d7a4c"/>
    <path id="Path_6270" data-name="Path 6270" d="M141,130.772a1.877,1.877,0,0,1,0-3.727c.289.012,7.808-.065,7.9-.027,0,0-.053,3.723-.052,3.754-.461.02-7.683-.063-7.849,0" transform="translate(-107.556 -97.969)" fill="#378c58"/>
    <path id="Path_6271" data-name="Path 6271" d="M166.058,64.517l4.28-1.025-.977,3.94-3.3-2.914" transform="translate(-128.172 -48.976)" fill="#0b2c58"/>
    <path id="Path_6272" data-name="Path 6272" d="M78.643,155.827c.357,0,.715-.007,1.072,0a1.008,1.008,0,0,1,1,.964.971.971,0,0,1-.936,1.021c-.776.028-1.554.028-2.33,0a.991.991,0,0,1-.914-1,1.007,1.007,0,0,1,.941-.979c.388-.018.777,0,1.165,0Z" transform="translate(-59.075 -120.197)" fill="#fbf8f7"/>
    <path id="Path_6273" data-name="Path 6273" d="M80.414,159c-.31,0-.621,0-.932,0-.327,0-.549-.139-.572-.475s.2-.514.522-.521c.683-.014,1.366-.02,2.049,0,.312.007.543.166.528.519a.474.474,0,0,1-.524.476c-.357.011-.714,0-1.071,0Z" transform="translate(-60.906 -121.871)" fill="#2d7a4c"/>
    <path id="Path_6274" data-name="Path 6274" d="M148.364,133.278h-2.3a.65.65,0,0,1-.647-.649V132.5a.65.65,0,0,1,.647-.649h2.3a.65.65,0,0,1,.647.649v.134a.65.65,0,0,1-.647.649" transform="translate(-112.241 -101.702)" fill="#f9f5f3"/>
  </g>
</svg>
