<svg id="Group_9428" data-name="Group 9428" xmlns="http://www.w3.org/2000/svg" xmlns:xlink="http://www.w3.org/1999/xlink" width="60" height="60" viewBox="0 0 60 60">
  <defs>
    <clipPath id="clip-path">
      <rect id="Rectangle_5112" data-name="Rectangle 5112" width="60" height="60" fill="none"/>
    </clipPath>
  </defs>
  <g id="Group_9259" data-name="Group 9259" clip-path="url(#clip-path)">
    <path id="Path_6275" data-name="Path 6275" d="M60,30A30,30,0,1,1,30,0,30,30,0,0,1,60,30" transform="translate(0 -0.001)" fill="#1b3d6c"/>
    <path id="Path_6276" data-name="Path 6276" d="M76.312,113.954,94.2,133.863a25.394,25.394,0,0,0,8.612-3.149c4.038-2.281,8.9-6.382,11.352-11.022,0,0,3.335-4.7,4.165-14.2L98.415,91.168l1.631,3.441Z" transform="translate(-58.329 -74.437)" fill="#0b2c58"/>
    <path id="Path_6277" data-name="Path 6277" d="M77.513,94.336v17.934l25.308.306,2-.679,1.452-2.253.606-1.235v-12.1l-2.465-3.451H79.732Z" transform="translate(-60.783 -72.503)" fill="#4195c3"/>
    <path id="Path_6278" data-name="Path 6278" d="M158.119,122.656c.388,0,.776-.008,1.163,0a1.093,1.093,0,0,1,1.087,1.045,1.052,1.052,0,0,1-1.016,1.105c-.842.03-1.686.031-2.529,0a1.074,1.074,0,0,1-.992-1.086,1.093,1.093,0,0,1,1.022-1.06c.421-.02.843,0,1.265,0Z" transform="translate(-119.11 -93.749)" fill="#fbf8f7"/>
    <path id="Path_6279" data-name="Path 6279" d="M159.954,126.045c-.337,0-.674,0-1.011,0-.355,0-.6-.151-.621-.514s.217-.557.566-.565c.741-.016,1.483-.021,2.224-.005.339.007.59.18.573.562a.514.514,0,0,1-.568.516c-.387.011-.775,0-1.163,0Z" transform="translate(-121.011 -95.507)" fill="#092448"/>
    <path id="Path_6280" data-name="Path 6280" d="M97.676,73.872A7.279,7.279,0,0,1,98,76.489q0,5.42.011,10.841a4.076,4.076,0,0,1-3.806,4.328,4.018,4.018,0,0,1-.519,0c-7.079,0-14.157-.005-21.237.01a6.332,6.332,0,0,1-2.4-.457v.031c0-.113-.086-.124-.168-.139A4.669,4.669,0,0,1,67.9,86.84c.055-3.656.008-7.313.011-10.97a4.114,4.114,0,0,1,3.428-4.3c5.179-1.314,10.375-2.551,15.614-3.6.726-.146,1.452-.288,2.183-.392a3.554,3.554,0,0,1,3.594,1.347c.018.076.032.156.139.145l-.024-.007a5.316,5.316,0,0,1,.33,2.028c-.024.344.094.5.462.469a4.329,4.329,0,0,1,2.026.34,4.736,4.736,0,0,1,1.838,1.717c.045.1.049.229.188.26ZM87.31,83.878l-.14-.113-.006,0-.253-.24-.01-.01-.224-.276,0,.007-.112-.152.008.007-.152-.28a2.828,2.828,0,0,1,2.983-3.87c2.467.114,4.943.016,7.415.038.473,0,.625-.122.6-.6-.041-.907,0-1.817-.022-2.726a3.509,3.509,0,0,0-3.457-3.561c-.065,0-.13,0-.195,0-1.733-.007-3.466,0-5.2,0H72.2a3.5,3.5,0,0,0-3.673,3.316c0,.093-.006.186,0,.279q-.011,5.927,0,11.855a3.363,3.363,0,0,0,.547,1.919,3.592,3.592,0,0,0,3.254,1.59c6.36-.016,12.72,0,19.081-.007.99,0,1.989.026,2.978-.043a3.261,3.261,0,0,0,2.823-2.37,9.814,9.814,0,0,0,.161-3.353,1.537,1.537,0,0,0,0-.755c-.125-.309-.4-.159-.594-.161-1.56-.015-3.12.009-4.681-.014a27.534,27.534,0,0,1-4.04-.106,1.653,1.653,0,0,1-.358-.137l-.2-.113L87.3,83.87ZM75.756,71.1a5.549,5.549,0,0,0-1.585.435c.191.015.269.026.347.026H92.043a1.7,1.7,0,0,0,.438-.029c.09-.024.079-.132.012-.2l.017-1.138a.976.976,0,0,0-.214-.711,2.12,2.12,0,0,0-1.386-1.2,4.461,4.461,0,0,0-2.37.007c-4.292.786-8.545,1.762-12.781,2.809M92.852,83.771h0c1.371,0,2.743-.011,4.114.007.36,0,.47-.109.462-.468-.022-1.033-.036-2.068,0-3.1.018-.5-.132-.65-.632-.644-2.595.028-5.19.014-7.786.03a2.089,2.089,0,0,0-2.2,1.97q0,.069,0,.137a2.113,2.113,0,0,0,2.15,2.075l.095,0c1.266,0,2.532,0,3.8,0" transform="translate(-51.901 -51.586)" fill="#fff"/>
    <path id="Path_6281" data-name="Path 6281" d="M90.27,42.157l.558.529c2.2,1.636,2.941.234,3.906-1.269,2.681-4.159,6.742-5.32,11.572-4.8a12.528,12.528,0,0,0-6.629,9.559l2.656,1.455-9.174,6.013Z" transform="translate(-68.997 -27.901)" fill="#0071af"/>
    <path id="Path_6282" data-name="Path 6282" d="M90.27,42.157l.558.529c2.2,1.636,2.941.234,3.906-1.269,2.681-4.159,6.742-5.32,11.572-4.8a12.528,12.528,0,0,0-6.629,9.559l2.656,1.455-9.174,6.013Z" transform="translate(-68.997 -27.901)" fill="none" stroke="#fff" stroke-width="1"/>
  </g>
</svg>
